<svg xmlns="http://www.w3.org/2000/svg" width="20" height="15" viewBox="0 0 20 15"><defs><style>.a{opacity:0.75;}.b{fill:#2a85dc;fill-rule:evenodd;}</style></defs><g class="a"><g transform="translate(0 0)"><g transform="translate(0 0)"><path class="b" d="M29.3,35.924a.846.846,0,0,1,1.246-.949l18.166,6.878c.773.293.773.768,0,1.06L30.546,49.79A.846.846,0,0,1,29.3,48.84l.44-4.223a1.927,1.927,0,0,1,1.645-1.638l4.131-.439c.824-.088.822-.23,0-.317l-4.131-.439a1.926,1.926,0,0,1-1.645-1.638Z" transform="translate(-29.292 -34.882)"/></g></g></g></svg>